# xmcd
#
# Track frame offsets:
#	150
#	50958
#	65901
#	89146
#	114262
#	148748
#	183473
#	222959
#	246952
#	278139
#	303701
#	324988
#
# Disc length: 4798 seconds
#
# Revision: 4186460933
# Processed by: cddbd v1.5.2PL0 Copyright (c) Steve Scherf et al.
# Submitted via: EZCDAudioConverter 8.5.0.1
#
DISCID=c512bc0c
DTITLE=Pink Floyd - The Later Years 1987-2019
DYEAR=2019
DGENRE=
TTITLE0=Shine On You Crazy Diamond, Parts 1-5 [Live]
TTITLE1=Marooned Jam
TTITLE2=One Slip [2019 Remix]
TTITLE3=Lost For Words [Pulse Tour Rehearsal, 1994]
TTITLE4=Us And Them [2019 Remix]
TTITLE5=Comfortably Numb [Live]
TTITLE6=Sorrow [2019 Remix]
TTITLE7=Learning To Fly [2019 Remix]
TTITLE8=High Hopes [Early Version]
TTITLE9=On The Turning Away [2019 Remix]
TTITLE10=Wish You Were Here [Live]
TTITLE11=Run Like Hell [2019 Remix]
EXTD=
EXTT0=
EXTT1=
EXTT2=
EXTT3=
EXTT4=
EXTT5=
EXTT6=
EXTT7=
EXTT8=
EXTT9=
EXTT10=
EXTT11=
PLAYORDER=
